<svg width="18" height="18" viewBox="0 0 18 18" fill="none" xmlns="http://www.w3.org/2000/svg">
<path d="M8.6499 2.65002V0.650024M8.6499 2.65002C7.54533 2.65002 6.6499 3.54545 6.6499 4.65002C6.6499 5.75459 7.54533 6.65002 8.6499 6.65002M8.6499 2.65002C9.75447 2.65002 10.6499 3.54545 10.6499 4.65002C10.6499 5.75459 9.75447 6.65002 8.6499 6.65002M2.6499 14.65C3.75447 14.65 4.6499 13.7546 4.6499 12.65C4.6499 11.5455 3.75447 10.65 2.6499 10.65M2.6499 14.65C1.54533 14.65 0.649902 13.7546 0.649902 12.65C0.649902 11.5455 1.54533 10.65 2.6499 10.65M2.6499 14.65V16.65M2.6499 10.65V0.650024M8.6499 6.65002V16.65M14.6499 14.65C15.7545 14.65 16.6499 13.7546 16.6499 12.65C16.6499 11.5455 15.7545 10.65 14.6499 10.65M14.6499 14.65C13.5453 14.65 12.6499 13.7546 12.6499 12.65C12.6499 11.5455 13.5453 10.65 14.6499 10.65M14.6499 14.65V16.65M14.6499 10.65V0.650024" stroke="#111827" stroke-width="1.3" stroke-linecap="round" stroke-linejoin="round"/>
</svg>
