<svg width="20" height="25" viewBox="0 0 20 25" fill="none" xmlns="http://www.w3.org/2000/svg">
<path fill-rule="evenodd" clip-rule="evenodd" d="M1.68919 0C0.756214 0 0 0.756214 0 1.68919V23.3108C0 24.2438 0.756214 25 1.68919 25H17.9054C18.8384 25 19.5946 24.2438 19.5946 23.3108V1.68919C19.5946 0.756214 18.8384 0 17.9054 0H1.68919ZM4.48619 0.675615H1.68919C1.12927 0.675615 0.675615 1.12925 0.675615 1.68919V23.3108C0.675615 23.8707 1.12925 24.3244 1.68919 24.3244H17.9054C18.4653 24.3244 18.919 23.8707 18.919 23.3108V1.68919C18.919 1.12927 18.4653 0.675615 17.9054 0.675615H15.1084L14.6637 2.00965C14.5259 2.42347 14.1384 2.7027 13.7022 2.7027H5.89273C5.45653 2.7027 5.06913 2.42345 4.93122 2.00965L4.48619 0.675615ZM14.3963 0.675615H5.19866L5.57218 1.79591C5.61813 1.93401 5.74727 2.02685 5.89267 2.02685H13.7022C13.8476 2.02685 13.9767 1.934 14.0226 1.79591L14.3963 0.675615Z" fill="#817AF3" fill-opacity="0.8"/>
<path fill-rule="evenodd" clip-rule="evenodd" d="M3.04053 7.43227C3.04053 6.87259 3.49416 6.4187 4.0541 6.4187H5.40533C5.96525 6.4187 6.41891 6.87257 6.41891 7.43227V8.78351C6.41891 9.34342 5.96527 9.79708 5.40533 9.79708H4.0541C3.49418 9.79708 3.04053 9.34344 3.04053 8.78351V7.43227ZM4.0541 7.09434C3.86746 7.09434 3.71617 7.24563 3.71617 7.43227V8.78351C3.71617 8.97015 3.86746 9.12144 4.0541 9.12144H5.40533C5.59198 9.12144 5.74327 8.97015 5.74327 8.78351V7.43227C5.74327 7.24563 5.59198 7.09434 5.40533 7.09434H4.0541Z" fill="#817AF3" fill-opacity="0.8"/>
<path fill-rule="evenodd" clip-rule="evenodd" d="M3.04053 12.4999C3.04053 11.9402 3.49416 11.4863 4.0541 11.4863H5.40533C5.96525 11.4863 6.41891 11.9402 6.41891 12.4999V13.8511C6.41891 14.4111 5.96527 14.8647 5.40533 14.8647H4.0541C3.49418 14.8647 3.04053 14.4111 3.04053 13.8511V12.4999ZM4.0541 12.162C3.86746 12.162 3.71617 12.3133 3.71617 12.4999V13.8511C3.71617 14.0378 3.86746 14.1891 4.0541 14.1891H5.40533C5.59198 14.1891 5.74327 14.0378 5.74327 13.8511V12.4999C5.74327 12.3133 5.59198 12.162 5.40533 12.162H4.0541Z" fill="#817AF3" fill-opacity="0.8"/>
<path fill-rule="evenodd" clip-rule="evenodd" d="M3.04053 17.5675C3.04053 17.0078 3.49416 16.554 4.0541 16.554H5.40533C5.96525 16.554 6.41891 17.0078 6.41891 17.5675V18.9188C6.41891 19.4787 5.96527 19.9323 5.40533 19.9323H4.0541C3.49418 19.9323 3.04053 19.4787 3.04053 18.9188V17.5675ZM4.0541 17.2296C3.86746 17.2296 3.71617 17.3809 3.71617 17.5675V18.9188C3.71617 19.1054 3.86746 19.2567 4.0541 19.2567H5.40533C5.59198 19.2567 5.74327 19.1054 5.74327 18.9188V17.5675C5.74327 17.3809 5.59198 17.2296 5.40533 17.2296H4.0541Z" fill="#817AF3" fill-opacity="0.8"/>
<path fill-rule="evenodd" clip-rule="evenodd" d="M7.77026 8.10796C7.77026 7.92132 7.92155 7.77026 8.1082 7.77026H16.5541C16.7408 7.77026 16.8921 7.92132 16.8921 8.10796C16.8921 8.29461 16.7408 8.4459 16.5541 8.4459H8.1082C7.92155 8.4459 7.77026 8.29461 7.77026 8.10796Z" fill="#817AF3" fill-opacity="0.8"/>
<path fill-rule="evenodd" clip-rule="evenodd" d="M7.77026 13.1756C7.77026 12.9889 7.92155 12.8379 8.1082 12.8379H16.5541C16.7408 12.8379 16.8921 12.9889 16.8921 13.1756C16.8921 13.3622 16.7408 13.5135 16.5541 13.5135H8.1082C7.92155 13.5135 7.77026 13.3622 7.77026 13.1756Z" fill="#817AF3" fill-opacity="0.8"/>
<path fill-rule="evenodd" clip-rule="evenodd" d="M7.77026 18.2432C7.77026 18.0566 7.92155 17.9055 8.1082 17.9055H16.5541C16.7408 17.9055 16.8921 18.0566 16.8921 18.2432C16.8921 18.4299 16.7408 18.5812 16.5541 18.5812H8.1082C7.92155 18.5812 7.77026 18.4299 7.77026 18.2432Z" fill="#817AF3" fill-opacity="0.8"/>
</svg>
