<svg width="30" height="30" viewBox="0 0 30 30" fill="none" xmlns="http://www.w3.org/2000/svg">
<rect width="30" height="30" rx="4" fill="#ECEAFF"/>
<path d="M14.8118 2C12.3254 2 9.94082 2.98774 8.18294 4.74572C6.42475 6.50391 5.43701 8.88846 5.43701 11.3751C5.43701 16.375 13.9869 25.7498 14.3496 26.1751C14.4689 26.3038 14.6367 26.3762 14.8121 26.3752C14.9874 26.3762 15.1552 26.3038 15.2745 26.1751L16.062 25.2813V25.7501C16.062 26.0816 16.1938 26.3996 16.4282 26.634C16.6625 26.8684 16.9804 27 17.3121 27H24.812C25.1435 27 25.4613 26.8684 25.6957 26.634C25.9303 26.3996 26.0619 26.0816 26.0619 25.7501V18.2502C26.0619 17.9187 25.9303 17.6006 25.6957 17.3663C25.4613 17.1319 25.1434 17.0003 24.812 17.0003H22.1682C23.5056 14.6877 24.1869 12.8004 24.1869 11.3753C24.1869 9.72968 23.7538 8.11297 22.931 6.68787C22.1082 5.26262 20.9246 4.07924 19.4995 3.2564C18.0744 2.43355 16.4577 2.00043 14.812 2.00043L14.8118 2ZM24.8119 25.7495H17.3119V18.2496H19.1869V20.7497C19.1876 20.9663 19.3003 21.1672 19.4849 21.2804C19.6695 21.3938 19.8997 21.4034 20.0931 21.3059L21.0617 20.8246L22.0304 21.3059H22.0306C22.1176 21.3505 22.2139 21.3741 22.3118 21.3745C22.4288 21.3749 22.5437 21.3425 22.6431 21.2808C22.8262 21.1663 22.9373 20.9656 22.9369 20.7497V18.2496H24.8119L24.8119 25.7495ZM21.687 18.2496V19.7371L21.3743 19.5684C21.1975 19.4793 20.9887 19.4793 20.8118 19.5684L20.468 19.7371V18.2496H21.687ZM19.812 16.9997H17.3119C16.9803 16.9997 16.6624 17.1313 16.428 17.3657C16.1937 17.6001 16.0618 17.9181 16.0618 18.2496V23.3495C15.5556 23.9746 15.1181 24.4682 14.8119 24.8121C13.0307 22.7808 6.68682 15.2936 6.68682 11.3749C6.68682 8.472 8.23556 5.79014 10.7494 4.33837C13.2633 2.8866 16.3604 2.88692 18.874 4.33837C21.3875 5.78981 22.9366 8.47189 22.9366 11.3749C22.9366 12.6811 22.1617 14.6249 20.7115 16.9998L19.812 16.9997Z" fill="#817AF3" fill-opacity="0.6"/>
<path d="M14.8118 6.99976C13.6514 6.99976 12.5388 7.46076 11.7183 8.28106C10.8978 9.10155 10.4368 10.2144 10.4368 11.3748C10.4368 12.5349 10.8978 13.6478 11.7183 14.4683C12.5388 15.2888 13.6514 15.7496 14.8118 15.7496C15.9721 15.7496 17.0848 15.2888 17.9053 14.4683C18.7258 13.6478 19.1868 12.5349 19.1868 11.3748C19.1868 10.2144 18.7258 9.10155 17.9053 8.28106C17.0848 7.46079 15.9721 6.99976 14.8118 6.99976ZM14.8118 14.4997C13.9829 14.4997 13.1881 14.1705 12.6022 13.5844C12.0161 12.9984 11.6869 12.2035 11.6869 11.3748C11.6869 10.5459 12.0161 9.7511 12.6022 9.16498C13.1882 8.57902 13.9829 8.24967 14.8118 8.24967C15.6407 8.24967 16.4355 8.57904 17.0214 9.16498C17.6075 9.7511 17.9367 10.5459 17.9367 11.3748C17.9367 12.2035 17.6075 12.9985 17.0214 13.5844C16.4354 14.1705 15.6407 14.4997 14.8118 14.4997Z" fill="#817AF3" fill-opacity="0.6"/>
</svg>
