<svg width="32" height="32" viewBox="0 0 32 32" fill="none" xmlns="http://www.w3.org/2000/svg">
<path fill-rule="evenodd" clip-rule="evenodd" d="M18.1661 3.1442L24.8327 6.22333C25.7932 6.66693 26.5833 7.38289 27.1342 8.26089L22.6833 10.4864L11.3879 4.27392L13.8339 3.1442C15.2129 2.50727 16.7871 2.50727 18.1661 3.1442ZM9.69612 5.05532L7.16726 6.22333C6.20682 6.66693 5.41666 7.38289 4.86578 8.26088L16 13.828L21.0529 11.3016L9.69612 5.05532ZM4.2448 9.62745C4.08492 10.1563 4 10.7152 4 11.2881V20.7116C4 22.9019 5.24125 24.8868 7.16726 25.7764L13.8339 28.8555C14.2894 29.0658 14.7661 29.2067 15.25 29.2781V15.13L4.2448 9.62745ZM16.75 29.2781C17.2339 29.2067 17.7106 29.0658 18.1661 28.8555L21.9167 27.1232V12.5467L16.75 15.13V29.2781ZM23.4167 26.4304L24.8327 25.7764C26.7588 24.8868 28 22.9019 28 20.7116V11.2881C28 10.7152 27.9151 10.1563 27.7552 9.62745L23.4167 11.7967V26.4304Z" fill="#006EC4"/>
</svg>
