<svg width="26" height="24" viewBox="0 0 26 24" fill="none" xmlns="http://www.w3.org/2000/svg">
<path d="M21.2263 0.100342C21.7251 0.100342 22.1973 0.318433 22.5388 0.688232L22.6775 0.855225L22.6785 0.856201L25.239 4.43042L25.3523 4.58862H25.2957C25.299 4.61811 25.2987 4.6494 25.2878 4.68237V22.1794C25.2878 23.0672 24.5593 23.8287 23.6394 23.8289H1.74878C0.829733 23.8289 0.100342 23.0983 0.100342 22.1794V4.66772C0.100342 4.57998 0.142792 4.49786 0.169678 4.44409L0.173584 4.43726L0.178467 4.43042L2.73706 0.859131C3.05482 0.382613 3.62413 0.100342 4.19116 0.100342H21.2263ZM0.895264 22.1794C0.895264 22.6327 1.27002 23.033 1.74878 23.033H23.6687C24.122 23.033 24.5222 22.6582 24.5222 22.1794V5.06519H16.3826V10.0583C16.3825 10.3029 16.2447 10.5416 16.0408 10.6775L16.033 10.6824L16.0242 10.6863C15.8008 10.7819 15.5567 10.8218 15.3103 10.6814V10.6804L12.7087 9.27808L10.1052 10.6824C9.9989 10.7505 9.86452 10.7839 9.7605 10.7839C9.62669 10.7839 9.48619 10.7506 9.37671 10.6775C9.17494 10.5431 9.03496 10.3352 9.03491 10.0583V5.06519H0.895264V22.1794ZM9.83081 4.74097V9.98022L12.6609 8.42163L12.7087 8.39526L12.7566 8.42163L15.5867 9.95093V4.70972L14.5095 0.895264H10.9382L9.83081 4.74097ZM16.2986 4.26929H24.1589L22.0388 1.30054V1.29956C21.8474 1.056 21.5492 0.895426 21.2273 0.895264H15.3435L16.2986 4.26929ZM4.19116 0.895264C3.86227 0.895264 3.56731 1.03166 3.37964 1.29956L3.37866 1.30054L1.25854 4.26929H9.14917L10.1042 0.895264H4.19116Z" fill="#DBA362" stroke="#DBA362" stroke-width="0.2"/>
<path d="M15.1914 4.27002V5.06494H10.2266V4.27002H15.1914Z" fill="#DBA362" stroke="#DBA362" stroke-width="0.2"/>
</svg>
