<svg width="16" height="16" viewBox="0 0 16 16" fill="none" xmlns="http://www.w3.org/2000/svg">
<path fill-rule="evenodd" clip-rule="evenodd" d="M6.6665 2.5C6.6223 2.5 6.57991 2.51756 6.54865 2.54882C6.5174 2.58007 6.49984 2.62246 6.49984 2.66667V4.16667H9.49984V2.66667C9.49984 2.62246 9.48228 2.58007 9.45102 2.54882C9.41976 2.51756 9.37737 2.5 9.33317 2.5H6.6665ZM3.87657 5.16667L4.49811 12.6251C4.49926 12.639 4.49984 12.6528 4.49984 12.6667C4.49984 12.8877 4.58763 13.0996 4.74391 13.2559C4.9002 13.4122 5.11216 13.5 5.33317 13.5H10.6665C10.8875 13.5 11.0995 13.4122 11.2558 13.2559C11.412 13.0996 11.4998 12.8877 11.4998 12.6667C11.4998 12.6528 11.5004 12.639 11.5016 12.6251L12.1231 5.16667H3.87657ZM13.1266 5.16667L12.4997 12.6891C12.4939 13.1672 12.3014 13.6245 11.9629 13.963C11.619 14.3068 11.1527 14.5 10.6665 14.5H5.33317C4.84694 14.5 4.38062 14.3068 4.03681 13.963C3.69828 13.6245 3.50582 13.1672 3.49997 12.6891L2.8731 5.16667H2.6665C2.39036 5.16667 2.1665 4.94281 2.1665 4.66667C2.1665 4.39052 2.39036 4.16667 2.6665 4.16667H5.49984V2.66667C5.49984 2.35725 5.62275 2.0605 5.84155 1.84171C6.06034 1.62292 6.35708 1.5 6.6665 1.5H9.33317C9.64259 1.5 9.93934 1.62292 10.1581 1.84171C10.3769 2.0605 10.4998 2.35725 10.4998 2.66667V4.16667H13.3332C13.6093 4.16667 13.8332 4.39052 13.8332 4.66667C13.8332 4.94281 13.6093 5.16667 13.3332 5.16667H13.1266ZM6.6665 6.83333C6.94265 6.83333 7.1665 7.05719 7.1665 7.33333V11.3333C7.1665 11.6095 6.94265 11.8333 6.6665 11.8333C6.39036 11.8333 6.1665 11.6095 6.1665 11.3333V7.33333C6.1665 7.05719 6.39036 6.83333 6.6665 6.83333ZM9.33317 6.83333C9.60931 6.83333 9.83317 7.05719 9.83317 7.33333V11.3333C9.83317 11.6095 9.60931 11.8333 9.33317 11.8333C9.05703 11.8333 8.83317 11.6095 8.83317 11.3333V7.33333C8.83317 7.05719 9.05703 6.83333 9.33317 6.83333Z" fill="white"/>
</svg>
